<?xml version="1.0" standalone="no"?><svg xmlns:xlink="http://www.w3.org/1999/xlink" xmlns="http://www.w3.org/2000/svg" viewBox="0 0 800 266.6605234058238" preserveAspectRatio="xMaxYMax slice"><g transform="scale(0.7371913011426465)"><rect x="0" y="0" width="1157.5466666666666" height="361.73333333333335" fill="#ffffff"/><rect x="0" y="0" width="72.35" height="72.35" fill="#556a9c"/><rect x="0" y="0" width="72.35" height="72.35" fill="#8796b9"/><rect x="72.35" y="0" width="72.35" height="72.35" fill="#f2f4f8"/><path d="M 72.35 0 A 72.35 72.35 0 0 1 144.7 72.35 L 72.35 72.35" fill="#d3d9e6"/><rect x="144.69" y="0" width="72.35" height="72.35" fill="#344c89"/><rect x="144.69" y="0" width="72.35" height="72.35" fill="#7485ae"/><rect x="217.04" y="0" width="72.34666666666666" height="72.34666666666666" fill="#ffffff"/><rect x="217.04" y="0" width="36.17" height="36.17" fill="#c4ccdd"/><path d="M 217.04 36.17 A 36.17 36.17 0 0 1  253.20999999999998 0 L 253.20999999999998 36.17" fill="#374f8a"/><rect x="253.21" y="0" width="36.17" height="36.17" fill="#7182ac"/><path d="M 253.21 0 A 36.17 36.17 0 0 1 289.38 36.17 L 253.21 36.17" fill="#fbfbfc"/><rect x="217.04" y="36.17" width="36.17" height="36.17" fill="#4a6096"/><path d="M 217.04 36.17 A 36.17 36.17 0 0 0 253.20999999999998 72.34 L 253.20999999999998 36.17" fill="#4e6498"/><rect x="253.21" y="36.17" width="36.17" height="36.17" fill="#fbfcfd"/><path d="M 253.21 72.34 A 36.17 36.17 0 0 0 289.38 36.17 L 253.21 36.17" fill="#8493b7"/><rect x="289.38666666666666" y="0" width="72.34666666666666" height="72.34666666666666" fill="#ffffff"/><rect x="289.39" y="0" width="36.17" height="36.17" fill="#6376a4"/><polygon points="325.56,0 325.56,36.17 289.39,36.17" fill="#9ca8c6"/><rect x="325.56" y="0" width="36.17" height="36.17" fill="#c4cbdc"/><polygon points="325.56,0 361.73,0 325.56,36.17" fill="#c4cbdd"/><rect x="289.39" y="36.17" width="36.17" height="36.17" fill="#2e4886"/><polygon points="289.39,36.17 325.56,36.17 325.56,72.34" fill="#eaedf3"/><rect x="325.56" y="36.17" width="36.17" height="36.17" fill="#92a0c0"/><polygon points="325.56,36.17 361.73,72.34 325.56,72.34" fill="#edeff4"/><rect x="361.73333333333335" y="0" width="72.34666666666666" height="72.34666666666666" fill="#ffffff"/><rect x="361.73" y="0" width="36.17" height="36.17" fill="#8c9abc"/><path d="M 361.73 36.17 A 36.17 36.17 0 0 0 397.90000000000003 0 L 361.73 0" fill="#e5e8f0"/><rect x="397.91" y="0" width="36.17" height="36.17" fill="#566b9d"/><path d="M 397.91 0 A 36.17 36.17 0 0 0 434.08000000000004 36.17 L 434.08000000000004 0" fill="#909dbe"/><rect x="361.73" y="36.17" width="36.17" height="36.17" fill="#fafbfc"/><path d="M 361.73 36.17 A 36.17 36.17 0 0 1 397.90000000000003 72.34 L 361.73 72.34" fill="#7888b0"/><rect x="397.91" y="36.17" width="36.17" height="36.17" fill="#8292b6"/><path d="M 397.91 72.34 A 36.17 36.17 0 0 1  434.08000000000004 36.17 L 434.08000000000004 72.34" fill="#94a1c1"/><rect x="434.08" y="0" width="72.34666666666666" height="72.34666666666666" fill="#ffffff"/><rect x="434.08" y="0" width="36.17" height="36.17" fill="#374f8a"/><polygon points="470.25,0 470.25,36.17 434.08,36.17" fill="#a0acc8"/><rect x="470.25" y="0" width="36.17" height="36.17" fill="#c6cdde"/><polygon points="470.25,0 506.42,0 470.25,36.17" fill="#dde1eb"/><rect x="434.08" y="36.17" width="36.17" height="36.17" fill="#bbc3d7"/><polygon points="434.08,36.17 470.25,36.17 470.25,72.34" fill="#b2bcd2"/><rect x="470.25" y="36.17" width="36.17" height="36.17" fill="#a4afca"/><polygon points="470.25,36.17 506.42,72.34 470.25,72.34" fill="#fdfdfe"/><rect x="506.43" y="0" width="72.35" height="72.35" fill="#b7c0d5"/><path d="M 506.43 72.35 A 72.35 72.35 0 0 1  578.78 0 L 506.43 72.35 A 72.35 72.35 0 0 0 578.78 0" fill="#adb7cf"/><rect x="578.77" y="0" width="72.35" height="72.35" fill="#8594b8"/><path d="M 578.77 0 A 72.35 72.35 0 0 0 651.12 72.35 L 651.12 0" fill="#8392b7"/><rect x="651.12" y="0" width="72.35" height="72.35" fill="#dee2ec"/><rect x="651.12" y="0" width="72.35" height="72.35" fill="#7787b0"/><rect x="723.47" y="0" width="72.35" height="72.35" fill="#d0d5e3"/><rect x="723.47" y="0" width="72.35" height="72.35" fill="#dfe3ec"/><rect x="795.8133333333333" y="0" width="72.34666666666666" height="72.34666666666666" fill="#ffffff"/><rect x="795.81" y="0" width="36.17" height="36.17" fill="#e5e8f0"/><polygon points="831.9799999999999,0 831.9799999999999,36.17 795.81,36.17" fill="#7687af"/><rect x="831.99" y="0" width="36.17" height="36.17" fill="#dadfea"/><polygon points="831.99,0 868.16,36.17 831.99,36.17" fill="#4b6196"/><rect x="795.81" y="36.17" width="36.17" height="36.17" fill="#f3f5f8"/><polygon points="795.81,36.17 831.9799999999999,36.17 831.9799999999999,72.34" fill="#e4e7ef"/><rect x="831.99" y="36.17" width="36.17" height="36.17" fill="#919ebf"/><polygon points="831.99,36.17 868.16,36.17 831.99,72.34" fill="#3f568f"/><rect x="868.16" y="0" width="72.35" height="72.35" fill="#f8f9fb"/><rect x="868.16" y="0" width="72.35" height="72.35" fill="#304986"/><rect x="940.51" y="0" width="72.35" height="72.35" fill="#455c93"/><polygon points="1012.86,0 1012.86,72.35 940.51,72.35" fill="#ffffff"/><rect x="1012.85" y="0" width="72.35" height="72.35" fill="#8796b9"/><rect x="1012.85" y="0" width="72.35" height="72.35" fill="#a8b3cc"/><rect x="1085.2" y="0" width="72.35" height="72.35" fill="#3a528c"/><rect x="1085.2" y="0" width="72.35" height="72.35" fill="#39518c"/><rect x="0" y="72.34666666666666" width="72.34666666666666" height="72.34666666666666" fill="#ffffff"/><rect x="0" y="72.35" width="36.17" height="36.17" fill="#aab4cd"/><circle cx="18.085" cy="90.435" r="18.085" fill="#c8cfdf"/><rect x="36.17" y="72.35" width="36.17" height="36.17" fill="#fcfcfd"/><rect x="36.17" y="72.35" width="36.17" height="36.17" fill="#52679a"/><rect x="0" y="108.52" width="36.17" height="36.17" fill="#7a8ab1"/><circle cx="18.085" cy="126.60499999999999" r="18.085" fill="#586c9e"/><rect x="36.17" y="108.52" width="36.17" height="36.17" fill="#97a4c2"/><rect x="36.17" y="108.52" width="36.17" height="36.17" fill="#eceef4"/><rect x="72.35" y="72.35" width="72.35" height="72.35" fill="#bfc6d9"/><polygon points="72.35,72.35 144.7,72.35 144.7,144.7" fill="#9ba7c5"/><rect x="144.69" y="72.35" width="72.35" height="72.35" fill="#dfe3ec"/><path d="M 144.69 72.35 A 72.35 72.35 0 0 1  217.04 144.7 L 144.69 72.35 A 72.35 72.35 0 0 0 217.04 144.7" fill="#2a4483"/><rect x="217.04" y="72.35" width="72.35" height="72.35" fill="#496095"/><polygon points="289.39,72.35 289.39,144.7 217.04,144.7" fill="#fdfdfe"/><rect x="289.38666666666666" y="72.34666666666666" width="72.34666666666666" height="72.34666666666666" fill="#ffffff"/><rect x="289.39" y="72.35" width="36.17" height="36.17" fill="#2d4785"/><polygon points="325.56,72.35 325.56,108.52 289.39,108.52" fill="#8795b9"/><rect x="325.56" y="72.35" width="36.17" height="36.17" fill="#b8c1d6"/><polygon points="325.56,72.35 361.73,72.35 325.56,108.52" fill="#a3aec9"/><rect x="289.39" y="108.52" width="36.17" height="36.17" fill="#dee2ec"/><polygon points="289.39,108.52 325.56,108.52 325.56,144.69" fill="#8695b9"/><rect x="325.56" y="108.52" width="36.17" height="36.17" fill="#2d4785"/><polygon points="325.56,108.52 361.73,144.69 325.56,144.69" fill="#2e4885"/><rect x="361.73" y="72.35" width="72.35" height="72.35" fill="#8f9dbe"/><path d="M 361.73 144.7 A 72.35 72.35 0 0 0 434.08000000000004 72.35 L 361.73 72.35" fill="#e7eaf1"/><rect x="434.08" y="72.35" width="72.35" height="72.35" fill="#3f578f"/><path d="M 434.08 144.7 A 72.35 72.35 0 0 1  506.42999999999995 72.35 L 506.42999999999995 144.7" fill="#9ca8c5"/><rect x="506.4266666666666" y="72.34666666666666" width="72.34666666666666" height="72.34666666666666" fill="#ffffff"/><rect x="506.43" y="72.35" width="36.17" height="36.17" fill="#e2e6ee"/><path d="M 506.43 108.52 A 36.17 36.17 0 0 1  542.6 72.35 L 542.6 108.52" fill="#435a92"/><rect x="542.6" y="72.35" width="36.17" height="36.17" fill="#8a98bb"/><path d="M 542.6 72.35 A 36.17 36.17 0 0 1 578.77 108.52 L 542.6 108.52" fill="#5a6e9f"/><rect x="506.43" y="108.52" width="36.17" height="36.17" fill="#6c7ea9"/><path d="M 506.43 108.52 A 36.17 36.17 0 0 0 542.6 144.69 L 542.6 108.52" fill="#7f8fb5"/><rect x="542.6" y="108.52" width="36.17" height="36.17" fill="#d4d9e6"/><path d="M 542.6 144.69 A 36.17 36.17 0 0 0 578.77 108.52 L 542.6 108.52" fill="#354e89"/><rect x="578.77" y="72.35" width="72.35" height="72.35" fill="#fcfdfd"/><rect x="578.77" y="72.35" width="72.35" height="72.35" fill="#9eaac7"/><rect x="651.12" y="72.34666666666666" width="72.34666666666666" height="72.34666666666666" fill="#ffffff"/><rect x="651.12" y="72.35" width="36.17" height="36.17" fill="#aab5ce"/><polygon points="687.29,72.35 687.29,108.52 651.12,108.52" fill="#99a5c3"/><rect x="687.29" y="72.35" width="36.17" height="36.17" fill="#fcfcfd"/><polygon points="687.29,72.35 723.4599999999999,108.52 687.29,108.52" fill="#eff1f6"/><rect x="651.12" y="108.52" width="36.17" height="36.17" fill="#7d8db3"/><polygon points="651.12,108.52 687.29,108.52 687.29,144.69" fill="#7f8eb4"/><rect x="687.29" y="108.52" width="36.17" height="36.17" fill="#3a528c"/><polygon points="687.29,108.52 723.4599999999999,108.52 687.29,144.69" fill="#425991"/><rect x="723.4666666666667" y="72.34666666666666" width="72.34666666666666" height="72.34666666666666" fill="#ffffff"/><rect x="723.47" y="72.35" width="36.17" height="36.17" fill="#bcc4d8"/><polygon points="759.64,72.35 759.64,108.52 723.47,108.52" fill="#8090b5"/><rect x="759.64" y="72.35" width="36.17" height="36.17" fill="#8392b7"/><polygon points="759.64,72.35 795.81,108.52 759.64,108.52" fill="#ced4e2"/><rect x="723.47" y="108.52" width="36.17" height="36.17" fill="#e7eaf1"/><polygon points="723.47,108.52 759.64,108.52 723.47,144.69" fill="#dde1eb"/><rect x="759.64" y="108.52" width="36.17" height="36.17" fill="#304986"/><polygon points="759.64,108.52 795.81,108.52 795.81,144.69" fill="#b9c2d6"/><rect x="795.81" y="72.35" width="72.35" height="72.35" fill="#c8cfdf"/><path d="M 795.81 72.35 A 72.35 72.35 0 0 1  868.16 144.7 L 795.81 72.35 A 72.35 72.35 0 0 0 868.16 144.7" fill="#4a6095"/><rect x="868.16" y="72.34666666666666" width="72.34666666666666" height="72.34666666666666" fill="#ffffff"/><rect x="868.16" y="72.35" width="36.17" height="36.17" fill="#5e72a1"/><polygon points="904.3299999999999,72.35 904.3299999999999,108.52 868.16,108.52" fill="#3d558e"/><rect x="904.33" y="72.35" width="36.17" height="36.17" fill="#abb5ce"/><polygon points="904.33,72.35 940.5,72.35 904.33,108.52" fill="#38508b"/><rect x="868.16" y="108.52" width="36.17" height="36.17" fill="#c6cdde"/><polygon points="868.16,108.52 904.3299999999999,108.52 904.3299999999999,144.69" fill="#7586af"/><rect x="904.33" y="108.52" width="36.17" height="36.17" fill="#a6b0cb"/><polygon points="904.33,108.52 940.5,144.69 904.33,144.69" fill="#8f9dbe"/><rect x="940.5066666666667" y="72.34666666666666" width="72.34666666666666" height="72.34666666666666" fill="#ffffff"/><rect x="940.51" y="72.35" width="36.17" height="36.17" fill="#6c7ea9"/><polygon points="976.68,72.35 976.68,108.52 940.51,108.52" fill="#b5bed4"/><rect x="976.68" y="72.35" width="36.17" height="36.17" fill="#bac2d7"/><polygon points="976.68,72.35 1012.8499999999999,72.35 976.68,108.52" fill="#f3f4f8"/><rect x="940.51" y="108.52" width="36.17" height="36.17" fill="#7384ad"/><polygon points="940.51,108.52 976.68,108.52 976.68,144.69" fill="#8897ba"/><rect x="976.68" y="108.52" width="36.17" height="36.17" fill="#6d7faa"/><polygon points="976.68,108.52 1012.8499999999999,144.69 976.68,144.69" fill="#f5f6f9"/><rect x="1012.85" y="72.35" width="72.35" height="72.35" fill="#a4afca"/><path d="M 1012.85 72.35 A 72.35 72.35 0 0 1 1085.2 144.7 L 1012.85 144.7" fill="#aab4cd"/><rect x="1085.2" y="72.34666666666666" width="72.34666666666666" height="72.34666666666666" fill="#ffffff"/><rect x="1085.2" y="72.35" width="36.17" height="36.17" fill="#415890"/><path d="M 1085.2 72.35 A 36.17 36.17 0 0 0 1121.3700000000001 108.52 L 1121.3700000000001 72.35" fill="#c2c9dc"/><rect x="1121.37" y="72.35" width="36.17" height="36.17" fill="#98a4c3"/><path d="M 1121.37 108.52 A 36.17 36.17 0 0 0 1157.54 72.35 L 1121.37 72.35" fill="#6073a2"/><rect x="1085.2" y="108.52" width="36.17" height="36.17" fill="#909ebf"/><path d="M 1085.2 144.69 A 36.17 36.17 0 0 1  1121.3700000000001 108.52 L 1121.3700000000001 144.69" fill="#d2d7e5"/><rect x="1121.37" y="108.52" width="36.17" height="36.17" fill="#a8b2cc"/><path d="M 1121.37 108.52 A 36.17 36.17 0 0 1 1157.54 144.69 L 1121.37 144.69" fill="#2d4785"/><rect x="0" y="144.69" width="72.35" height="72.35" fill="#6174a3"/><polygon points="0,144.69 72.35,144.69 0,217.04" fill="#d4d9e6"/><rect x="72.35" y="144.69" width="72.35" height="72.35" fill="#7a8ab1"/><rect x="72.35" y="144.69" width="72.35" height="72.35" fill="#b3bcd3"/><rect x="144.69333333333333" y="144.69333333333333" width="72.34666666666666" height="72.34666666666666" fill="#ffffff"/><rect x="144.69" y="144.69" width="36.17" height="36.17" fill="#aeb8d0"/><path d="M 144.69 144.69 A 36.17 36.17 0 0 0 180.86 180.86 L 180.86 144.69" fill="#7a8ab2"/><rect x="180.87" y="144.69" width="36.17" height="36.17" fill="#596e9f"/><path d="M 180.87 180.86 A 36.17 36.17 0 0 0 217.04000000000002 144.69 L 180.87 144.69" fill="#38508b"/><rect x="144.69" y="180.87" width="36.17" height="36.17" fill="#e5e8f0"/><path d="M 144.69 217.04000000000002 A 36.17 36.17 0 0 1  180.86 180.87 L 180.86 217.04000000000002" fill="#7a8ab1"/><rect x="180.87" y="180.87" width="36.17" height="36.17" fill="#6477a5"/><path d="M 180.87 180.87 A 36.17 36.17 0 0 1 217.04000000000002 217.04000000000002 L 180.87 217.04000000000002" fill="#3a528c"/><rect x="217.04" y="144.69" width="72.35" height="72.35" fill="#7e8db4"/><path d="M 217.04 144.69 A 72.35 72.35 0 0 1 289.39 217.04 L 217.04 217.04" fill="#6e80aa"/><rect x="289.39" y="144.69" width="72.35" height="72.35" fill="#cdd3e2"/><polygon points="289.39,144.69 361.74,217.04 289.39,217.04" fill="#7989b1"/><rect x="361.73333333333335" y="144.69333333333333" width="72.34666666666666" height="72.34666666666666" fill="#ffffff"/><rect x="361.73" y="144.69" width="36.17" height="36.17" fill="#6a7da8"/><path d="M 361.73 144.69 A 36.17 36.17 0 0 0 397.90000000000003 180.86 L 397.90000000000003 144.69" fill="#e6e9f0"/><rect x="397.91" y="144.69" width="36.17" height="36.17" fill="#cbd2e1"/><path d="M 397.91 180.86 A 36.17 36.17 0 0 0 434.08000000000004 144.69 L 397.91 144.69" fill="#bdc5d9"/><rect x="361.73" y="180.87" width="36.17" height="36.17" fill="#e9ebf2"/><path d="M 361.73 217.04000000000002 A 36.17 36.17 0 0 1  397.90000000000003 180.87 L 397.90000000000003 217.04000000000002" fill="#6c7ea9"/><rect x="397.91" y="180.87" width="36.17" height="36.17" fill="#2d4785"/><path d="M 397.91 180.87 A 36.17 36.17 0 0 1 434.08000000000004 217.04000000000002 L 397.91 217.04000000000002" fill="#2b4583"/><rect x="434.08" y="144.69333333333333" width="72.34666666666666" height="72.34666666666666" fill="#ffffff"/><rect x="434.08" y="144.69" width="36.17" height="36.17" fill="#bfc7da"/><circle cx="452.16499999999996" cy="162.775" r="18.085" fill="#5e71a1"/><rect x="470.25" y="144.69" width="36.17" height="36.17" fill="#c7cede"/><rect x="470.25" y="144.69" width="36.17" height="36.17" fill="#9aa6c4"/><rect x="434.08" y="180.87" width="36.17" height="36.17" fill="#bdc5d9"/><circle cx="452.16499999999996" cy="198.955" r="18.085" fill="#6074a3"/><rect x="470.25" y="180.87" width="36.17" height="36.17" fill="#8a98bb"/><rect x="470.25" y="180.87" width="36.17" height="36.17" fill="#f5f7f9"/><rect x="506.4266666666666" y="144.69333333333333" width="72.34666666666666" height="72.34666666666666" fill="#ffffff"/><rect x="506.43" y="144.69" width="36.17" height="36.17" fill="#fcfdfd"/><path d="M 506.43 180.86 A 36.17 36.17 0 0 1  542.6 144.69 L 542.6 180.86" fill="#7586af"/><rect x="542.6" y="144.69" width="36.17" height="36.17" fill="#b3bcd3"/><path d="M 542.6 144.69 A 36.17 36.17 0 0 1 578.77 180.86 L 542.6 180.86" fill="#6d7faa"/><rect x="506.43" y="180.87" width="36.17" height="36.17" fill="#7a8ab1"/><path d="M 506.43 180.87 A 36.17 36.17 0 0 0 542.6 217.04000000000002 L 542.6 180.87" fill="#f8f8fb"/><rect x="542.6" y="180.87" width="36.17" height="36.17" fill="#8291b6"/><path d="M 542.6 217.04000000000002 A 36.17 36.17 0 0 0 578.77 180.87 L 542.6 180.87" fill="#364e8a"/><rect x="578.7733333333333" y="144.69333333333333" width="72.34666666666666" height="72.34666666666666" fill="#ffffff"/><rect x="578.77" y="144.69" width="36.17" height="36.17" fill="#556a9c"/><polygon points="614.9399999999999,144.69 614.9399999999999,180.86 578.77,180.86" fill="#8897ba"/><rect x="614.95" y="144.69" width="36.17" height="36.17" fill="#2d4785"/><polygon points="614.95,144.69 651.12,144.69 614.95,180.86" fill="#edeff5"/><rect x="578.77" y="180.87" width="36.17" height="36.17" fill="#9aa7c4"/><polygon points="578.77,180.87 614.9399999999999,180.87 614.9399999999999,217.04000000000002" fill="#d9dee9"/><rect x="614.95" y="180.87" width="36.17" height="36.17" fill="#6275a4"/><polygon points="614.95,180.87 651.12,217.04000000000002 614.95,217.04000000000002" fill="#8694b8"/><rect x="651.12" y="144.69" width="72.35" height="72.35" fill="#b2bbd2"/><path d="M 651.12 217.04 A 72.35 72.35 0 0 0 723.47 144.69 L 651.12 144.69" fill="#909ebf"/><rect x="723.47" y="144.69" width="72.35" height="72.35" fill="#b2bbd2"/><rect x="723.47" y="144.69" width="72.35" height="72.35" fill="#bac3d7"/><rect x="795.8133333333333" y="144.69333333333333" width="72.34666666666666" height="72.34666666666666" fill="#ffffff"/><rect x="795.81" y="144.69" width="36.17" height="36.17" fill="#fcfcfd"/><path d="M 795.81 180.86 A 36.17 36.17 0 0 1  831.9799999999999 144.69 L 831.9799999999999 180.86" fill="#99a5c3"/><rect x="831.99" y="144.69" width="36.17" height="36.17" fill="#abb5ce"/><path d="M 831.99 144.69 A 36.17 36.17 0 0 1 868.16 180.86 L 831.99 180.86" fill="#cfd5e3"/><rect x="795.81" y="180.87" width="36.17" height="36.17" fill="#fcfcfd"/><path d="M 795.81 180.87 A 36.17 36.17 0 0 0 831.9799999999999 217.04000000000002 L 831.9799999999999 180.87" fill="#8d9bbd"/><rect x="831.99" y="180.87" width="36.17" height="36.17" fill="#6b7da9"/><path d="M 831.99 217.04000000000002 A 36.17 36.17 0 0 0 868.16 180.87 L 831.99 180.87" fill="#f5f7f9"/><rect x="868.16" y="144.69" width="72.35" height="72.35" fill="#cad1e0"/><path d="M 868.16 217.04 A 72.35 72.35 0 0 1  940.51 144.69 L 940.51 217.04" fill="#feffff"/><rect x="940.5066666666667" y="144.69333333333333" width="72.34666666666666" height="72.34666666666666" fill="#ffffff"/><rect x="940.51" y="144.69" width="36.17" height="36.17" fill="#cbd1e1"/><polygon points="976.68,144.69 976.68,180.86 940.51,180.86" fill="#f3f4f8"/><rect x="976.68" y="144.69" width="36.17" height="36.17" fill="#5c70a0"/><polygon points="976.68,144.69 1012.8499999999999,180.86 976.68,180.86" fill="#d4dae6"/><rect x="940.51" y="180.87" width="36.17" height="36.17" fill="#f8f8fb"/><polygon points="940.51,180.87 976.68,180.87 976.68,217.04000000000002" fill="#52679a"/><rect x="976.68" y="180.87" width="36.17" height="36.17" fill="#acb6cf"/><polygon points="976.68,180.87 1012.8499999999999,180.87 976.68,217.04000000000002" fill="#eef0f5"/><rect x="1012.85" y="144.69" width="72.35" height="72.35" fill="#c2cadc"/><polygon points="1012.85,144.69 1085.2,144.69 1012.85,217.04" fill="#e2e5ee"/><rect x="1085.2" y="144.69" width="72.35" height="72.35" fill="#6a7ca8"/><polygon points="1157.55,144.69 1157.55,217.04 1085.2,217.04" fill="#5d70a0"/><rect x="0" y="217.04" width="72.34666666666666" height="72.34666666666666" fill="#ffffff"/><rect x="0" y="217.04" width="36.17" height="36.17" fill="#d1d7e4"/><path d="M 0 253.20999999999998 A 36.17 36.17 0 0 1 36.17 217.04 L 36.17 226.08249999999998 A 27.1275 27.1275 0 0 0 9.0425 253.20999999999998" fill="#7082ac"/><rect x="36.17" y="217.04" width="36.17" height="36.17" fill="#e9ecf2"/><path d="M 36.17 217.04 A 36.17 36.17 0 0 1 72.34 253.20999999999998 L 63.2975 253.20999999999998 A 27.1275 27.1275 0 0 0 36.17 226.08249999999998" fill="#39518c"/><rect x="0" y="253.21" width="36.17" height="36.17" fill="#f8f9fb"/><path d="M 0 253.21 A 36.17 36.17 0 0 0 36.17 289.38 L 36.17 280.33750000000003 A 27.1275 27.1275 0 0 1 9.0425 253.21" fill="#95a2c1"/><rect x="36.17" y="253.21" width="36.17" height="36.17" fill="#a6b1cb"/><path d="M 36.17 289.38 A 36.17 36.17 0 0 0 72.34 253.21 L 63.2975 253.21 A 27.1275 27.1275 0 0 1 36.17 280.33750000000003" fill="#6578a5"/><rect x="72.34666666666666" y="217.04" width="72.34666666666666" height="72.34666666666666" fill="#ffffff"/><rect x="72.35" y="217.04" width="36.17" height="36.17" fill="#53689b"/><path d="M 72.35 253.20999999999998 A 36.17 36.17 0 0 1  108.52 217.04 L 108.52 253.20999999999998" fill="#f3f4f8"/><rect x="108.52" y="217.04" width="36.17" height="36.17" fill="#d8dde8"/><path d="M 108.52 217.04 A 36.17 36.17 0 0 1 144.69 253.20999999999998 L 108.52 253.20999999999998" fill="#bac2d7"/><rect x="72.35" y="253.21" width="36.17" height="36.17" fill="#7283ad"/><path d="M 72.35 253.21 A 36.17 36.17 0 0 0 108.52 289.38 L 108.52 253.21" fill="#ebedf3"/><rect x="108.52" y="253.21" width="36.17" height="36.17" fill="#8291b6"/><path d="M 108.52 289.38 A 36.17 36.17 0 0 0 144.69 253.21 L 108.52 253.21" fill="#dadfea"/><rect x="144.69" y="217.04" width="72.35" height="72.35" fill="#dce1eb"/><rect x="144.69" y="217.04" width="72.35" height="72.35" fill="#8b99bb"/><rect x="217.04" y="217.04" width="72.35" height="72.35" fill="#8896ba"/><polygon points="217.04,217.04 289.39,217.04 217.04,289.39" fill="#919fbf"/><rect x="289.39" y="217.04" width="72.35" height="72.35" fill="#7687af"/><polygon points="289.39,217.04 361.74,217.04 289.39,289.39" fill="#3f568f"/><rect x="361.73" y="217.04" width="72.35" height="72.35" fill="#6f81ab"/><polygon points="361.73,217.04 434.08000000000004,217.04 361.73,289.39" fill="#d4d9e6"/><rect x="434.08" y="217.04" width="72.35" height="72.35" fill="#9eaac7"/><polygon points="434.08,217.04 506.42999999999995,217.04 506.42999999999995,289.39" fill="#e0e4ed"/><rect x="506.43" y="217.04" width="72.35" height="72.35" fill="#d4dae6"/><polygon points="506.43,217.04 578.78,289.39 506.43,289.39" fill="#5a6e9f"/><rect x="578.77" y="217.04" width="72.35" height="72.35" fill="#bec6d9"/><path d="M 578.77 289.39 A 72.35 72.35 0 0 1  651.12 217.04 L 651.12 289.39" fill="#2d4785"/><rect x="651.12" y="217.04" width="72.34666666666666" height="72.34666666666666" fill="#ffffff"/><rect x="651.12" y="217.04" width="36.17" height="36.17" fill="#8392b7"/><path d="M 651.12 253.20999999999998 A 36.17 36.17 0 0 1 687.29 217.04 L 687.29 226.08249999999998 A 27.1275 27.1275 0 0 0 660.1625 253.20999999999998" fill="#7e8db4"/><rect x="687.29" y="217.04" width="36.17" height="36.17" fill="#7889b1"/><path d="M 687.29 217.04 A 36.17 36.17 0 0 1 723.4599999999999 253.20999999999998 L 714.4175 253.20999999999998 A 27.1275 27.1275 0 0 0 687.29 226.08249999999998" fill="#e1e4ed"/><rect x="651.12" y="253.21" width="36.17" height="36.17" fill="#cdd3e2"/><path d="M 651.12 253.21 A 36.17 36.17 0 0 0 687.29 289.38 L 687.29 280.33750000000003 A 27.1275 27.1275 0 0 1 660.1625 253.21" fill="#596d9e"/><rect x="687.29" y="253.21" width="36.17" height="36.17" fill="#4d6397"/><path d="M 687.29 289.38 A 36.17 36.17 0 0 0 723.4599999999999 253.21 L 714.4175 253.21 A 27.1275 27.1275 0 0 1 687.29 280.33750000000003" fill="#d9dee9"/><rect x="723.4666666666667" y="217.04" width="72.34666666666666" height="72.34666666666666" fill="#ffffff"/><rect x="723.47" y="217.04" width="36.17" height="36.17" fill="#96a3c2"/><path d="M 723.47 217.04 A 36.17 36.17 0 0 0 759.64 253.20999999999998 L 759.64 217.04" fill="#f0f1f6"/><rect x="759.64" y="217.04" width="36.17" height="36.17" fill="#d9dee9"/><path d="M 759.64 253.20999999999998 A 36.17 36.17 0 0 0 795.81 217.04 L 759.64 217.04" fill="#edeff5"/><rect x="723.47" y="253.21" width="36.17" height="36.17" fill="#596d9e"/><path d="M 723.47 289.38 A 36.17 36.17 0 0 1  759.64 253.21 L 759.64 289.38" fill="#dadfea"/><rect x="759.64" y="253.21" width="36.17" height="36.17" fill="#6376a4"/><path d="M 759.64 253.21 A 36.17 36.17 0 0 1 795.81 289.38 L 759.64 289.38" fill="#98a5c3"/><rect x="795.81" y="217.04" width="72.35" height="72.35" fill="#9aa6c4"/><path d="M 795.81 217.04 A 72.35 72.35 0 0 1  868.16 289.39 L 795.81 217.04 A 72.35 72.35 0 0 0 868.16 289.39" fill="#dee2ec"/><rect x="868.16" y="217.04" width="72.34666666666666" height="72.34666666666666" fill="#ffffff"/><rect x="868.16" y="217.04" width="36.17" height="36.17" fill="#6d7eaa"/><polygon points="904.3299999999999,217.04 904.3299999999999,253.20999999999998 868.16,253.20999999999998" fill="#7081ac"/><rect x="904.33" y="217.04" width="36.17" height="36.17" fill="#bdc5d8"/><polygon points="904.33,217.04 940.5,253.20999999999998 904.33,253.20999999999998" fill="#adb7d0"/><rect x="868.16" y="253.21" width="36.17" height="36.17" fill="#d5dae7"/><polygon points="868.16,253.21 904.3299999999999,253.21 868.16,289.38" fill="#adb7cf"/><rect x="904.33" y="253.21" width="36.17" height="36.17" fill="#4b6196"/><polygon points="904.33,253.21 940.5,253.21 940.5,289.38" fill="#415890"/><rect x="940.5066666666667" y="217.04" width="72.34666666666666" height="72.34666666666666" fill="#ffffff"/><rect x="940.51" y="217.04" width="36.17" height="36.17" fill="#9da9c6"/><path d="M 940.51 217.04 A 36.17 36.17 0 0 0 976.68 253.20999999999998 L 976.68 217.04" fill="#d7dce8"/><rect x="976.68" y="217.04" width="36.17" height="36.17" fill="#98a4c3"/><path d="M 976.68 253.20999999999998 A 36.17 36.17 0 0 0 1012.8499999999999 217.04 L 976.68 217.04" fill="#304986"/><rect x="940.51" y="253.21" width="36.17" height="36.17" fill="#f0f2f6"/><path d="M 940.51 289.38 A 36.17 36.17 0 0 1  976.68 253.21 L 976.68 289.38" fill="#3a528c"/><rect x="976.68" y="253.21" width="36.17" height="36.17" fill="#37508b"/><path d="M 976.68 253.21 A 36.17 36.17 0 0 1 1012.8499999999999 289.38 L 976.68 289.38" fill="#c8cedf"/><rect x="1012.85" y="217.04" width="72.35" height="72.35" fill="#8493b7"/><rect x="1012.85" y="217.04" width="72.35" height="72.35" fill="#8c9abc"/><rect x="1085.2" y="217.04" width="72.35" height="72.35" fill="#95a2c1"/><rect x="1085.2" y="217.04" width="72.35" height="72.35" fill="#4c6297"/><rect x="0" y="289.39" width="72.35" height="72.35" fill="#5e71a1"/><path d="M 0 361.74 A 72.35 72.35 0 0 1  72.35 289.39 L 0 361.74 A 72.35 72.35 0 0 0 72.35 289.39" fill="#5f72a2"/><rect x="72.35" y="289.39" width="72.35" height="72.35" fill="#dde1eb"/><rect x="72.35" y="289.39" width="72.35" height="72.35" fill="#adb7cf"/><rect x="144.69" y="289.39" width="72.35" height="72.35" fill="#415890"/><polygon points="144.69,289.39 217.04,289.39 144.69,361.74" fill="#5b6f9f"/><rect x="217.04" y="289.38666666666666" width="72.34666666666666" height="72.34666666666666" fill="#ffffff"/><rect x="217.04" y="289.39" width="36.17" height="36.17" fill="#e3e7ef"/><polygon points="253.20999999999998,289.39 253.20999999999998,325.56 217.04,325.56" fill="#d9dde9"/><rect x="253.21" y="289.39" width="36.17" height="36.17" fill="#fcfdfd"/><polygon points="253.21,289.39 289.38,289.39 253.21,325.56" fill="#596e9f"/><rect x="217.04" y="325.56" width="36.17" height="36.17" fill="#b9c1d6"/><polygon points="217.04,325.56 253.20999999999998,325.56 253.20999999999998,361.73" fill="#a5b0cb"/><rect x="253.21" y="325.56" width="36.17" height="36.17" fill="#dadee9"/><polygon points="253.21,325.56 289.38,361.73 253.21,361.73" fill="#6f81ab"/><rect x="289.38666666666666" y="289.38666666666666" width="72.34666666666666" height="72.34666666666666" fill="#ffffff"/><rect x="289.39" y="289.39" width="36.17" height="36.17" fill="#8291b6"/><path d="M 289.39 289.39 A 36.17 36.17 0 0 1 325.56 325.56 L 289.39 325.56" fill="#354e89"/><rect x="325.56" y="289.39" width="36.17" height="36.17" fill="#6175a3"/><path d="M 325.56 325.56 A 36.17 36.17 0 0 1  361.73 289.39 L 361.73 325.56" fill="#344d89"/><rect x="289.39" y="325.56" width="36.17" height="36.17" fill="#d7dce8"/><path d="M 289.39 361.73 A 36.17 36.17 0 0 0 325.56 325.56 L 289.39 325.56" fill="#c4cbdd"/><rect x="325.56" y="325.56" width="36.17" height="36.17" fill="#7384ad"/><path d="M 325.56 325.56 A 36.17 36.17 0 0 0 361.73 361.73 L 361.73 325.56" fill="#6376a4"/><rect x="361.73333333333335" y="289.38666666666666" width="72.34666666666666" height="72.34666666666666" fill="#ffffff"/><rect x="361.73" y="289.39" width="36.17" height="36.17" fill="#d1d6e4"/><path d="M 361.73 325.56 A 36.17 36.17 0 0 0 397.90000000000003 289.39 L 361.73 289.39" fill="#cad1e0"/><rect x="397.91" y="289.39" width="36.17" height="36.17" fill="#d6dbe7"/><path d="M 397.91 289.39 A 36.17 36.17 0 0 0 434.08000000000004 325.56 L 434.08000000000004 289.39" fill="#7889b1"/><rect x="361.73" y="325.56" width="36.17" height="36.17" fill="#e5e8f0"/><path d="M 361.73 325.56 A 36.17 36.17 0 0 1 397.90000000000003 361.73 L 361.73 361.73" fill="#7f8eb4"/><rect x="397.91" y="325.56" width="36.17" height="36.17" fill="#7d8db3"/><path d="M 397.91 361.73 A 36.17 36.17 0 0 1  434.08000000000004 325.56 L 434.08000000000004 361.73" fill="#e0e3ed"/><rect x="434.08" y="289.38666666666666" width="72.34666666666666" height="72.34666666666666" fill="#ffffff"/><rect x="434.08" y="289.39" width="36.17" height="36.17" fill="#6275a3"/><path d="M 434.08 325.56 A 36.17 36.17 0 0 1 470.25 289.39 L 470.25 298.4325 A 27.1275 27.1275 0 0 0 443.1225 325.56" fill="#e9ecf2"/><rect x="470.25" y="289.39" width="36.17" height="36.17" fill="#c5ccdd"/><path d="M 470.25 289.39 A 36.17 36.17 0 0 1 506.42 325.56 L 497.3775 325.56 A 27.1275 27.1275 0 0 0 470.25 298.4325" fill="#a3aec9"/><rect x="434.08" y="325.56" width="36.17" height="36.17" fill="#e1e5ee"/><path d="M 434.08 325.56 A 36.17 36.17 0 0 0 470.25 361.73 L 470.25 352.6875 A 27.1275 27.1275 0 0 1 443.1225 325.56" fill="#8392b7"/><rect x="470.25" y="325.56" width="36.17" height="36.17" fill="#8e9bbd"/><path d="M 470.25 361.73 A 36.17 36.17 0 0 0 506.42 325.56 L 497.3775 325.56 A 27.1275 27.1275 0 0 1 470.25 352.6875" fill="#455b92"/><rect x="506.4266666666666" y="289.38666666666666" width="72.34666666666666" height="72.34666666666666" fill="#ffffff"/><rect x="506.43" y="289.39" width="36.17" height="36.17" fill="#8594b8"/><path d="M 506.43 325.56 A 36.17 36.17 0 0 1 542.6 289.39 L 542.6 298.4325 A 27.1275 27.1275 0 0 0 515.4725 325.56" fill="#a3aec9"/><rect x="542.6" y="289.39" width="36.17" height="36.17" fill="#cfd5e3"/><path d="M 542.6 289.39 A 36.17 36.17 0 0 1 578.77 325.56 L 569.7275000000001 325.56 A 27.1275 27.1275 0 0 0 542.6 298.4325" fill="#8d9bbc"/><rect x="506.43" y="325.56" width="36.17" height="36.17" fill="#b6bfd5"/><path d="M 506.43 325.56 A 36.17 36.17 0 0 0 542.6 361.73 L 542.6 352.6875 A 27.1275 27.1275 0 0 1 515.4725 325.56" fill="#e4e7ef"/><rect x="542.6" y="325.56" width="36.17" height="36.17" fill="#bac3d7"/><path d="M 542.6 361.73 A 36.17 36.17 0 0 0 578.77 325.56 L 569.7275000000001 325.56 A 27.1275 27.1275 0 0 1 542.6 352.6875" fill="#7183ad"/><rect x="578.77" y="289.39" width="72.35" height="72.35" fill="#929fc0"/><path d="M 578.77 361.74 A 72.35 72.35 0 0 0 651.12 289.39 L 578.77 289.39" fill="#a2aec9"/><rect x="651.12" y="289.38666666666666" width="72.34666666666666" height="72.34666666666666" fill="#ffffff"/><rect x="651.12" y="289.39" width="36.17" height="36.17" fill="#8c9abc"/><circle cx="669.205" cy="307.47499999999997" r="18.085" fill="#f5f7f9"/><rect x="687.29" y="289.39" width="36.17" height="36.17" fill="#c7cede"/><rect x="687.29" y="289.39" width="36.17" height="36.17" fill="#acb6cf"/><rect x="651.12" y="325.56" width="36.17" height="36.17" fill="#7e8eb4"/><circle cx="669.205" cy="343.645" r="18.085" fill="#39528c"/><rect x="687.29" y="325.56" width="36.17" height="36.17" fill="#6679a6"/><rect x="687.29" y="325.56" width="36.17" height="36.17" fill="#7a8ab1"/><rect x="723.4666666666667" y="289.38666666666666" width="72.34666666666666" height="72.34666666666666" fill="#ffffff"/><rect x="723.47" y="289.39" width="36.17" height="36.17" fill="#8594b8"/><circle cx="741.5550000000001" cy="307.47499999999997" r="18.085" fill="#334c88"/><rect x="759.64" y="289.39" width="36.17" height="36.17" fill="#405790"/><rect x="759.64" y="289.39" width="36.17" height="36.17" fill="#475d94"/><rect x="723.47" y="325.56" width="36.17" height="36.17" fill="#aeb8d0"/><circle cx="741.5550000000001" cy="343.645" r="18.085" fill="#38518b"/><rect x="759.64" y="325.56" width="36.17" height="36.17" fill="#7384ad"/><rect x="759.64" y="325.56" width="36.17" height="36.17" fill="#9da9c6"/><rect x="795.8133333333333" y="289.38666666666666" width="72.34666666666666" height="72.34666666666666" fill="#ffffff"/><rect x="795.81" y="289.39" width="36.17" height="36.17" fill="#b3bdd3"/><polygon points="831.9799999999999,289.39 831.9799999999999,325.56 795.81,325.56" fill="#bdc5d9"/><rect x="831.99" y="289.39" width="36.17" height="36.17" fill="#adb7cf"/><polygon points="831.99,289.39 868.16,325.56 831.99,325.56" fill="#3d558e"/><rect x="795.81" y="325.56" width="36.17" height="36.17" fill="#cdd3e2"/><polygon points="795.81,325.56 831.9799999999999,325.56 795.81,361.73" fill="#6376a4"/><rect x="831.99" y="325.56" width="36.17" height="36.17" fill="#ced4e2"/><polygon points="831.99,325.56 868.16,325.56 868.16,361.73" fill="#d6dbe7"/><rect x="868.16" y="289.39" width="72.35" height="72.35" fill="#a1adc9"/><path d="M 868.16 361.74 A 72.35 72.35 0 0 1  940.51 289.39 L 868.16 361.74 A 72.35 72.35 0 0 0 940.51 289.39" fill="#4e6498"/><rect x="940.5066666666667" y="289.38666666666666" width="72.34666666666666" height="72.34666666666666" fill="#ffffff"/><rect x="940.51" y="289.39" width="36.17" height="36.17" fill="#3a528c"/><circle cx="958.595" cy="307.47499999999997" r="18.085" fill="#e0e4ed"/><rect x="976.68" y="289.39" width="36.17" height="36.17" fill="#d2d8e5"/><rect x="976.68" y="289.39" width="36.17" height="36.17" fill="#5c70a0"/><rect x="940.51" y="325.56" width="36.17" height="36.17" fill="#b8c0d6"/><circle cx="958.595" cy="343.645" r="18.085" fill="#506599"/><rect x="976.68" y="325.56" width="36.17" height="36.17" fill="#8b99bb"/><rect x="976.68" y="325.56" width="36.17" height="36.17" fill="#6678a6"/><rect x="1012.85" y="289.39" width="72.35" height="72.35" fill="#f2f3f7"/><path d="M 1012.85 361.74 A 72.35 72.35 0 0 1  1085.2 289.39 L 1012.85 361.74 A 72.35 72.35 0 0 0 1085.2 289.39" fill="#edeff4"/><rect x="1085.2" y="289.38666666666666" width="72.34666666666666" height="72.34666666666666" fill="#ffffff"/><rect x="1085.2" y="289.39" width="36.17" height="36.17" fill="#c0c8da"/><circle cx="1103.285" cy="307.47499999999997" r="18.085" fill="#8e9cbd"/><rect x="1121.37" y="289.39" width="36.17" height="36.17" fill="#6174a3"/><rect x="1121.37" y="289.39" width="36.17" height="36.17" fill="#314a87"/><rect x="1085.2" y="325.56" width="36.17" height="36.17" fill="#c1c9db"/><circle cx="1103.285" cy="343.645" r="18.085" fill="#4f6498"/><rect x="1121.37" y="325.56" width="36.17" height="36.17" fill="#b2bcd2"/><rect x="1121.37" y="325.56" width="36.17" height="36.17" fill="#3b538d"/></g></svg>